HIERARCHY
ROOT Hips
{
	OFFSET 0.00000 0.00000 0.00000
	CHANNELS 6 Xposition Yposition Zposition Zrotation Yrotation Xrotation 
	JOINT LHipJoint
	{
		OFFSET 0 0 0
		CHANNELS 3 Zrotation Yrotation Xrotation
		JOINT LeftHip
		{
			OFFSET 1.52977 -1.71332 0.88991
			CHANNELS 3 Zrotation Yrotation Xrotation
			JOINT LeftKnee
			{
				OFFSET 2.23949 -6.15296 0.00000
				CHANNELS 3 Zrotation Yrotation Xrotation
				JOINT LeftAnkle
				{
					OFFSET 2.68396 -7.37412 0.00000
					CHANNELS 3 Zrotation Yrotation Xrotation
					JOINT LeftToe
					{
						OFFSET 0.20538 -0.56428 2.52710
						CHANNELS 3 Zrotation Yrotation Xrotation
						End Site
						{
							OFFSET 0.00000 -0.00000 1.29919
						}
					}
				}
			}
		}
	}
	JOINT RHipJoint
	{
		OFFSET 0 0 0
		CHANNELS 3 Zrotation Yrotation Xrotation
		JOINT RightHip
		{
			OFFSET -1.45689 -1.71333 0.88991
			CHANNELS 3 Zrotation Yrotation Xrotation
			JOINT RightKnee
			{
				OFFSET -2.36700 -6.50329 0.00000
				CHANNELS 3 Zrotation Yrotation Xrotation
				JOINT RightAnkle
				{
					OFFSET -2.69814 -7.41308 0.00000
					CHANNELS 3 Zrotation Yrotation Xrotation
					JOINT RightToe
					{
						OFFSET -0.18734 -0.51471 2.37479
						CHANNELS 3 Zrotation Yrotation Xrotation
						End Site
						{
							OFFSET -0.00000 -0.00000 1.22113
						}
					}
				}
			}
		}
	}
	JOINT lowerback
	{
		OFFSET 0 0 0
		CHANNELS 3 Zrotation Yrotation Xrotation
		JOINT Chest
		{
			OFFSET 0.04294 2.14638 -0.31163
			CHANNELS 3 Zrotation Yrotation Xrotation
			JOINT Chest2
			{
				OFFSET -0.00400 2.17216 0.01486
				CHANNELS 3 Zrotation Yrotation Xrotation
				JOINT lowerneck
				{
					OFFSET 0 0 0
					CHANNELS 3 Zrotation Yrotation Xrotation
					JOINT Neck
					{
						OFFSET 0.03869 1.76598 0.14916
						CHANNELS 3 Zrotation Yrotation Xrotation
						JOINT Head
						{
							OFFSET -0.00760 1.75513 -0.18948
							CHANNELS 3 Zrotation Yrotation Xrotation
							End Site
							{
								OFFSET -0.00601 1.82444 -0.08310
							}
						}
					}
				}
				JOINT LeftCollar
				{
					OFFSET 0 0 0
					CHANNELS 3 Zrotation Yrotation Xrotation
					JOINT LeftShoulder
					{
						OFFSET 3.73696 0.92058 0.01733
CHANNELS 3 Zrotation Xrotation Yrotation
						JOINT LeftElbow
						{
OFFSET 0 -5.227710 0.000000
CHANNELS 3 Zrotation Xrotation Yrotation
							JOINT LeftWrist
							{
OFFSET 0 -3.452510 0.000000
CHANNELS 3 Zrotation Xrotation Yrotation
								JOINT lhand
								{
									OFFSET 0 0 0
CHANNELS 3 Zrotation Xrotation Yrotation
									JOINT LFingers
									{
OFFSET 0 -0.552120 0.000000
CHANNELS 3 Zrotation Xrotation Yrotation
										End Site
										{
OFFSET 0 -0.445130 0.000000
										}
									}
								}
								JOINT LThumb
								{
OFFSET 0 0.000000 0.000000
CHANNELS 3 Zrotation Xrotation Yrotation
									End Site
									{
OFFSET 0 -0.451930 0.451930
									}
								}
							}
						}
					}
				}
				JOINT RightCollar
				{
					OFFSET 0 0 0
					CHANNELS 3 Zrotation Yrotation Xrotation
					JOINT RightShoulder
					{
						OFFSET -3.63819 0.83094 -0.13694
CHANNELS 3 Zrotation Xrotation Yrotation
						JOINT RightElbow
						{
OFFSET 0 -5.239800 -0.000000
CHANNELS 3 Zrotation Xrotation Yrotation
							JOINT RightWrist
							{
OFFSET 0 -3.480420 -0.000000
CHANNELS 3 Zrotation Xrotation Yrotation
								JOINT rhand
								{
									OFFSET 0 0 0
CHANNELS 3 Zrotation Xrotation Yrotation
									JOINT RFingers
									{
OFFSET 0 -0.618710 0.000000
CHANNELS 3 Zrotation Xrotation Yrotation
										End Site
										{
OFFSET 0 -0.498820 0.000000
										}
									}
								}
								JOINT RThumb
								{
OFFSET 0 0.000000 0.000000
CHANNELS 3 Zrotation Xrotation Yrotation
									End Site
									{
OFFSET 0 -0.506440 0.506440
									}
								}
							}
						}
					}
				}
			}
		}
	}
}
MOTION
Frames: 9
Frame Time: 0.008333333333333333
48.255400 16.708600 -4.474300 -138.445000 -86.925800 138.225000 0.000000 0.000000 0.000000 -13.238700 6.274100 -1.961100 1.048000 6.510000 18.271500 0.084300 6.414000 -11.058500 1.104900 -6.678800 -18.767100 0.000000 0.000000 0.000000 22.143800 6.843100 -6.126100 -3.355000 -11.248700 33.123400 -0.692800 -10.220700 -22.570700 -0.337000 3.730700 -10.320300 2.151100 -0.875000 -3.703600 0.411600 -1.311900 2.067800 -0.876300 -0.601300 4.172400 -1.438900 -3.343500 -4.225000 4.586200 -4.440700 -1.690800 1.588600 -2.208800 0.328100 0.000000 -0.000000 0.000000 2.582300 1.789400 -23.420500 14.659000 -23.668900 3.087700 19.201400 -11.336400 -13.997500 0.000000 0.000000 0.000000 -7.125000 0.000000 0.000000 -7.632400 44.630700 -0.070000 0.000000 -0.000000 0.000000 0.596300 -1.738000 18.036900 -13.414000 -21.890800 -2.605600 -19.653400 5.725000 7.448500 0.000000 0.000000 0.000000 7.125000 0.000000 -0.000000 6.120700 37.819000 1.086900
48.293087 16.646296 -4.468738 -141.045289 -87.020300 140.952903 0.000000 0.000000 0.000000 -13.539835 6.039458 -1.906641 1.017683 6.418121 18.002468 0.157172 6.290014 -12.282782 0.948697 -6.201593 -17.370849 0.000000 0.000000 0.000000 21.988677 7.164253 -6.393020 -3.421882 -11.348545 33.464749 -0.851206 -9.848288 -23.627062 -0.278664 3.394411 -9.378902 2.009749 -0.873257 -3.613927 0.357494 -1.296695 2.054394 -0.850010 -0.597529 4.109614 -1.427880 -3.358120 -4.232110 4.611940 -4.459202 -1.779483 1.595190 -2.219638 0.302723 0.000000 0.000000 0.000000 2.598792 1.636597 -23.465314 14.644939 -23.649097 3.082095 19.186778 -11.357294 -13.882181 0.000000 0.000000 0.000000 -7.125000 0.000000 0.000000 -7.620544 44.509141 -0.092890 0.000000 0.000000 0.000000 0.580063 -1.862468 18.184398 -13.435414 -21.921826 -2.613621 -19.560790 5.603787 7.313798 0.000000 0.000000 0.000000 7.125000 0.000000 0.000000 6.182080 37.671142 1.120455
48.333349 16.593472 -4.462614 -143.146352 -87.114320 143.137215 0.000000 0.000000 0.000000 -13.829957 5.789378 -1.930569 1.002226 6.370554 17.863513 0.213163 6.355482 -13.289488 0.821498 -5.781879 -16.153071 0.000000 0.000000 0.000000 21.838776 7.400036 -6.623431 -3.471705 -11.422108 33.717107 -1.006503 -9.457156 -24.590341 -0.213054 2.969557 -8.194160 1.881977 -0.888015 -3.507753 0.323175 -1.306309 2.088086 -0.812943 -0.605554 4.085960 -1.448380 -3.375491 -4.247018 4.665879 -4.479072 -1.913790 1.616428 -2.231536 0.266127 0.000000 0.000000 0.000000 2.573084 1.454070 -23.518496 14.700356 -23.727014 3.104326 19.037938 -11.434993 -14.063532 0.000000 0.000000 0.000000 -7.125000 0.000000 0.000000 -7.795873 44.679922 -0.061928 0.000000 0.000000 0.000000 0.527034 -1.982995 18.459506 -13.534276 -22.065030 -2.650606 -19.424964 5.431866 7.337379 0.000000 0.000000 0.000000 7.125000 0.000000 0.000000 6.300245 37.687017 1.139578
48.374020 16.543133 -4.456030 -144.745738 -87.216897 144.777262 0.000000 0.000000 0.000000 -14.078969 5.600851 -2.006173 0.999006 6.360522 17.834160 0.276385 6.322493 -14.229094 0.702855 -5.358509 -14.933993 0.000000 0.000000 0.000000 21.699893 7.515979 -6.801311 -3.503002 -11.467874 33.874597 -1.151182 -9.099588 -25.455185 -0.159002 2.569192 -7.081463 1.773355 -0.912661 -3.383003 0.291890 -1.330835 2.144825 -0.784336 -0.620370 4.074982 -1.459430 -3.388365 -4.247051 4.717015 -4.492856 -2.071372 1.635881 -2.241222 0.219433 0.000000 0.000000 0.000000 2.555736 1.283829 -23.633059 14.781249 -23.840545 3.136993 18.902520 -11.603789 -14.152211 0.000000 0.000000 0.000000 -7.125000 0.000000 0.000000 -7.939056 44.755861 -0.048144 0.000000 0.000000 0.000000 0.475512 -2.104142 18.781204 -13.643042 -22.222042 -2.691647 -19.378239 5.193559 7.323009 0.000000 0.000000 0.000000 7.125000 0.000000 0.000000 6.337969 37.668857 1.149283
48.414947 16.499903 -4.449327 -145.503199 -87.344989 145.515087 0.000000 0.000000 0.000000 -14.270969 5.510637 -2.119553 1.004435 6.377453 17.883573 0.340113 6.178612 -15.000478 0.596365 -4.942174 -13.744098 0.000000 0.000000 0.000000 21.582732 7.466037 -6.907532 -3.510888 -11.479463 33.914464 -1.281978 -8.783092 -26.211252 -0.113428 2.168448 -5.971684 1.679116 -0.949972 -3.234284 0.266645 -1.373832 2.229891 -0.758483 -0.644003 4.079349 -1.480775 -3.406980 -4.228185 4.782682 -4.513841 -2.223460 1.661950 -2.254407 0.172017 0.000000 0.000000 0.000000 2.538617 1.130789 -23.811022 14.892029 -23.995461 3.181906 18.791160 -11.832683 -14.180439 0.000000 0.000000 0.000000 -7.125000 0.000000 0.000000 -8.046906 44.771793 -0.045611 0.000000 0.000000 0.000000 0.425630 -2.200130 19.135642 -13.776487 -22.414290 -2.742331 -19.432765 4.938010 7.302292 0.000000 0.000000 0.000000 7.125000 0.000000 0.000000 6.289156 37.650665 1.143128
48.456596 16.463119 -4.444127 -144.467162 -87.465062 144.431187 0.000000 0.000000 0.000000 -14.347369 5.449758 -2.241168 1.012790 6.402983 17.958139 0.405735 5.931698 -15.665023 0.494205 -4.505560 -12.503730 0.000000 0.000000 0.000000 21.568113 7.336771 -6.961393 -3.500999 -11.464997 33.864555 -1.399227 -8.564564 -26.915521 -0.075475 1.769196 -4.868344 1.639848 -0.992988 -3.066123 0.259389 -1.427988 2.315254 -0.745111 -0.672164 4.072019 -1.505042 -3.432612 -4.178609 4.857619 -4.544478 -2.348216 1.691745 -2.272281 0.128705 0.000000 0.000000 0.000000 2.535623 1.022006 -24.042287 15.022147 -24.176918 3.235020 18.728054 -12.067079 -14.138454 0.000000 0.000000 0.000000 -7.125000 0.000000 0.000000 -8.095029 44.720889 -0.056156 0.000000 0.000000 0.000000 0.393728 -2.266501 19.449571 -13.906798 -22.601273 -2.792165 -19.531791 4.732774 7.268173 0.000000 0.000000 0.000000 7.125000 0.000000 0.000000 6.200955 37.621190 1.131442
48.498589 16.431661 -4.440714 -141.657770 -87.561600 141.571609 0.000000 0.000000 0.000000 -14.325999 5.349430 -2.339395 1.018160 6.419569 18.006825 0.470545 5.672103 -16.274640 0.403137 -4.075996 -11.290757 0.000000 0.000000 0.000000 21.658610 7.199269 -6.997073 -3.482623 -11.438153 33.772129 -1.505222 -8.452794 -27.593299 -0.045472 1.374679 -3.780372 1.654934 -1.037487 -2.893941 0.268299 -1.487191 2.385994 -0.745286 -0.701852 4.046274 -1.524359 -3.460715 -4.110377 4.933415 -4.579530 -2.425753 1.720747 -2.291751 0.096940 0.000000 0.000000 0.000000 2.551539 0.959710 -24.300151 15.165279 -24.375797 3.293884 18.702404 -12.256720 -14.082835 0.000000 0.000000 0.000000 -7.125000 0.000000 0.000000 -8.105891 44.660381 -0.068381 0.000000 0.000000 0.000000 0.386589 -2.301360 19.693415 -14.022088 -22.766280 -2.836670 -19.618961 4.585289 7.205352 0.000000 0.000000 0.000000 7.125000 0.000000 0.000000 6.119112 37.560795 1.125546
48.539961 16.402966 -4.437796 -137.485624 -87.598445 137.364549 0.000000 0.000000 0.000000 -14.236556 5.195694 -2.380789 1.014315 6.407607 17.971731 0.529495 5.519471 -16.867655 0.331913 -3.700998 -10.237042 0.000000 0.000000 0.000000 21.829436 7.097663 -7.060970 -3.469440 -11.418759 33.705502 -1.601392 -8.391860 -28.217929 -0.024318 1.001042 -2.751734 1.740718 -1.076879 -2.746884 0.296557 -1.543924 2.445880 -0.765245 -0.728631 4.022403 -1.522574 -3.495153 -4.081285 4.967716 -4.626135 -2.406824 1.730885 -2.315042 0.100430 0.000000 0.000000 0.000000 2.575197 0.925491 -24.547646 15.318617 -24.587997 3.357436 18.657783 -12.392482 -14.044199 0.000000 0.000000 0.000000 -7.125000 0.000000 0.000000 -8.137813 44.614991 -0.077860 0.000000 0.000000 0.000000 0.389248 -2.320589 19.873687 -14.123159 -22.910461 -2.875916 -19.628329 4.484771 7.149879 0.000000 0.000000 0.000000 7.125000 0.000000 0.000000 6.104319 37.503020 1.131467
48.578148 16.374921 -4.432556 -133.978596 -87.620012 133.833855 0.000000 0.000000 0.000000 -14.208749 4.997474 -2.365599 1.003909 6.375776 17.878702 0.581316 5.531586 -17.477933 0.276583 -3.382002 -9.344163 0.000000 0.000000 0.000000 21.940764 6.997357 -7.161158 -3.465150 -11.412501 33.683902 -1.688715 -8.285967 -28.738701 -0.010857 0.667749 -1.834990 1.832254 -1.106859 -2.660274 0.319462 -1.589049 2.503882 -0.794372 -0.748939 4.030721 -1.523305 -3.524856 -4.108714 4.976691 -4.668671 -2.288303 1.731409 -2.333888 0.143479 0.000000 0.000000 0.000000 2.589474 0.903680 -24.759458 15.470857 -24.797938 3.421050 18.582426 -12.487640 -14.037380 0.000000 0.000000 0.000000 -7.125000 0.000000 0.000000 -8.204877 44.599114 -0.081777 0.000000 0.000000 0.000000 0.384787 -2.322963 20.006118 -14.214681 -23.040776 -2.911598 -19.566202 4.382091 7.092957 0.000000 0.000000 0.000000 7.125000 0.000000 0.000000 6.149764 37.439063 1.149633
